<svg width="24" height="24" viewBox="0 0 24 24" fill="none" xmlns="http://www.w3.org/2000/svg">
  <path d="M21.29 4.11l-9.29-2.8-8.36 7.5 1.83 2.1-1.5 2.5 2.5.5 1 2.5 2.5-.5 2.5 2.5v-3.5l1.5-.5 3.5 2.5 4.5-4.5-1.5-2.5 1.5-2.5-3.5-1z" fill="#E2761B"/>
  <path d="M21.29 4.11l-9.29 6.5 1.5-3.5 7.79-3zM2.64 8.81l7.36 5.5-1-2.5-6.36-3z" fill="#E4761B"/>
  <path d="M18.29 14.11l-3.5-2.5-1 2.5 1.5 4 3.5-1-1.5-3zM5.71 14.11l1.5 3 3.5 1-1-4-1.5-2.5-2.5 2.5z" fill="#E4761B"/>
  <path d="M12 15.61v3.5l-2.5-1.5 1-2.5 1.5.5z" fill="#D7C1B3"/>
  <path d="M12 15.61l1.5-.5 1 2.5-2.5 1.5v-3.5z" fill="#233447"/>
  <path d="M14.5 11.61l-2.5.5-1-2.5 1-2.5 2.5 4.5z" fill="#CD6116"/>
  <path d="M9.5 9.61l-1 2.5-2.5-.5 3.5-4z" fill="#E4751F"/>
  <path d="M5.71 14.11l1.5-2.5-1-1 6.79-6.5 1 2.5-1.5 2.5-2.5.5 1 2.5-1.5 2.5-2.5-1z" fill="#F7A35C"/>
  <path d="M16.79 11.61l-1.5 2.5-1.5-2.5 1-2.5 1.5 1-1 1.5 1 1z" fill="#F7A35C"/>
  <path d="M12 15.61l1.5-2.5-1.5-1-1.5 1 1.5 2.5z" fill="#763D16"/>
  <path d="M12 15.61l-1.5 2.5 1.5 1.5v-4z" fill="#F7A35C"/>
  <path d="M12 15.61l1.5 2.5-1.5 1.5v-4z" fill="#E4761B"/>
</svg>
