<svg width="24" height="24" viewBox="0 0 24 24" fill="none" xmlns="http://www.w3.org/2000/svg">
  <path d="M21.5,3.5h-19C2.2,3.5,2,3.7,2,4v16c0,0.3,0.2,0.5,0.5,0.5h19c0.3,0,0.5-0.2,0.5-0.5V4C22,3.7,21.8,3.5,21.5,3.5z" fill="#4C2891"/>
  <path d="M18.1,16.1c-0.9,0-1.7-0.8-1.7-1.7c0-0.9,0.8-1.7,1.7-1.7c0.9,0,1.7,0.8,1.7,1.7C19.8,15.3,19,16.1,18.1,16.1z" fill="#4C2891"/>
  <path d="M12.5,16.1c-0.9,0-1.7-0.8-1.7-1.7c0-0.9,0.8-1.7,1.7-1.7s1.7,0.8,1.7,1.7C14.2,15.3,13.4,16.1,12.5,16.1z" fill="#4C2891"/>
  <path d="M15.3,12.7c-0.9,0-1.7-0.8-1.7-1.7c0-0.9,0.8-1.7,1.7-1.7c0.9,0,1.7,0.8,1.7,1.7C17,11.9,16.2,12.7,15.3,12.7z" fill="#4C2891"/>
  <path d="M9.7,12.7c-0.9,0-1.7-0.8-1.7-1.7c0-0.9,0.8-1.7,1.7-1.7c0.9,0,1.7,0.8,1.7,1.7C11.4,11.9,10.6,12.7,9.7,12.7z" fill="#4C2891"/>
  <path d="M6.9,16.1c-0.9,0-1.7-0.8-1.7-1.7c0-0.9,0.8-1.7,1.7-1.7c0.9,0,1.7,0.8,1.7,1.7C8.6,15.3,7.8,16.1,6.9,16.1z" fill="#4C2891"/>
  <path d="M12.5,9.3c-0.9,0-1.7-0.8-1.7-1.7c0-0.9,0.8-1.7,1.7-1.7s1.7,0.8,1.7,1.7C14.2,8.5,13.4,9.3,12.5,9.3z" fill="#4C2891"/>
</svg>